HIERARCHY
ROOT Hips
{
	OFFSET 0.00000 0.00000 0.00000
	CHANNELS 6 Xposition Yposition Zposition Zrotation Yrotation Xrotation 
	JOINT LHipJoint
	{
		OFFSET 0 0 0
		CHANNELS 3 Zrotation Yrotation Xrotation
		JOINT LeftHip
		{
			OFFSET 1.52977 -1.71332 0.88991
			CHANNELS 3 Zrotation Yrotation Xrotation
			JOINT LeftKnee
			{
				OFFSET 2.23949 -6.15296 0.00000
				CHANNELS 3 Zrotation Yrotation Xrotation
				JOINT LeftAnkle
				{
					OFFSET 2.68396 -7.37412 0.00000
					CHANNELS 3 Zrotation Yrotation Xrotation
					JOINT LeftToe
					{
						OFFSET 0.20538 -0.56428 2.52710
						CHANNELS 3 Zrotation Yrotation Xrotation
						End Site
						{
							OFFSET 0.00000 -0.00000 1.29919
						}
					}
				}
			}
		}
	}
	JOINT RHipJoint
	{
		OFFSET 0 0 0
		CHANNELS 3 Zrotation Yrotation Xrotation
		JOINT RightHip
		{
			OFFSET -1.45689 -1.71333 0.88991
			CHANNELS 3 Zrotation Yrotation Xrotation
			JOINT RightKnee
			{
				OFFSET -2.36700 -6.50329 0.00000
				CHANNELS 3 Zrotation Yrotation Xrotation
				JOINT RightAnkle
				{
					OFFSET -2.69814 -7.41308 0.00000
					CHANNELS 3 Zrotation Yrotation Xrotation
					JOINT RightToe
					{
						OFFSET -0.18734 -0.51471 2.37479
						CHANNELS 3 Zrotation Yrotation Xrotation
						End Site
						{
							OFFSET -0.00000 -0.00000 1.22113
						}
					}
				}
			}
		}
	}
	JOINT lowerback
	{
		OFFSET 0 0 0
		CHANNELS 3 Zrotation Yrotation Xrotation
		JOINT Chest
		{
			OFFSET 0.04294 2.14638 -0.31163
			CHANNELS 3 Zrotation Yrotation Xrotation
			JOINT Chest2
			{
				OFFSET -0.00400 2.17216 0.01486
				CHANNELS 3 Zrotation Yrotation Xrotation
				JOINT lowerneck
				{
					OFFSET 0 0 0
					CHANNELS 3 Zrotation Yrotation Xrotation
					JOINT Neck
					{
						OFFSET 0.03869 1.76598 0.14916
						CHANNELS 3 Zrotation Yrotation Xrotation
						JOINT Head
						{
							OFFSET -0.00760 1.75513 -0.18948
							CHANNELS 3 Zrotation Yrotation Xrotation
							End Site
							{
								OFFSET -0.00601 1.82444 -0.08310
							}
						}
					}
				}
				JOINT LeftCollar
				{
					OFFSET 0 0 0
					CHANNELS 3 Zrotation Yrotation Xrotation
					JOINT LeftShoulder
					{
						OFFSET 3.73696 0.92058 0.01733
CHANNELS 3 Zrotation Xrotation Yrotation
						JOINT LeftElbow
						{
OFFSET 0 -5.227710 0.000000
CHANNELS 3 Zrotation Xrotation Yrotation
							JOINT LeftWrist
							{
OFFSET 0 -3.452510 0.000000
CHANNELS 3 Zrotation Xrotation Yrotation
								JOINT lhand
								{
									OFFSET 0 0 0
CHANNELS 3 Zrotation Xrotation Yrotation
									JOINT LFingers
									{
OFFSET 0 -0.552120 0.000000
CHANNELS 3 Zrotation Xrotation Yrotation
										End Site
										{
OFFSET 0 -0.445130 0.000000
										}
									}
								}
								JOINT LThumb
								{
OFFSET 0 0.000000 0.000000
CHANNELS 3 Zrotation Xrotation Yrotation
									End Site
									{
OFFSET 0 -0.451930 0.451930
									}
								}
							}
						}
					}
				}
				JOINT RightCollar
				{
					OFFSET 0 0 0
					CHANNELS 3 Zrotation Yrotation Xrotation
					JOINT RightShoulder
					{
						OFFSET -3.63819 0.83094 -0.13694
CHANNELS 3 Zrotation Xrotation Yrotation
						JOINT RightElbow
						{
OFFSET 0 -5.239800 -0.000000
CHANNELS 3 Zrotation Xrotation Yrotation
							JOINT RightWrist
							{
OFFSET 0 -3.480420 -0.000000
CHANNELS 3 Zrotation Xrotation Yrotation
								JOINT rhand
								{
									OFFSET 0 0 0
CHANNELS 3 Zrotation Xrotation Yrotation
									JOINT RFingers
									{
OFFSET 0 -0.618710 0.000000
CHANNELS 3 Zrotation Xrotation Yrotation
										End Site
										{
OFFSET 0 -0.498820 0.000000
										}
									}
								}
								JOINT RThumb
								{
OFFSET 0 0.000000 0.000000
CHANNELS 3 Zrotation Xrotation Yrotation
									End Site
									{
OFFSET 0 -0.506440 0.506440
									}
								}
							}
						}
					}
				}
			}
		}
	}
}
MOTION
Frames: 5
Frame Time: 0.008333333333333333
50.119100 15.995100 -3.335000 -161.665000 -84.858600 162.403000 0.000000 0.000000 0.000000 -21.530000 13.499400 -7.666000 1.665500 8.131600 23.114500 1.837400 4.542000 -27.565200 0.003800 0.399800 1.098500 0.000000 0.000000 0.000000 18.406200 11.384100 -23.132600 -9.299100 -16.996400 57.119000 -1.051500 -8.014700 -23.835200 -0.069000 1.694400 -4.661700 -0.330000 -0.015900 1.554400 -0.629700 -0.046800 2.529200 -0.460600 -0.036900 1.719200 2.172600 -0.824700 -7.274300 4.248600 -1.494100 1.026900 0.910600 -0.664800 1.572500 0.000000 -0.000000 0.000000 1.693500 -0.124600 -11.196800 7.777900 -13.192200 0.900800 13.976500 3.222000 -15.865900 0.000000 0.000000 0.000000 -7.125000 0.000000 0.000000 -12.881600 45.897100 0.290000 0.000000 -0.000000 0.000000 0.158200 0.196900 20.711000 -16.104300 -25.661800 -3.691000 -18.707600 3.795200 4.439100 0.000000 0.000000 0.000000 7.125000 0.000000 -0.000000 6.561500 34.607000 1.683200
50.103308 15.991506 -3.311363 -163.508053 -84.800731 164.295873 0.000000 0.000000 0.000000 -21.703067 14.441879 -7.835683 1.617025 8.017886 22.768620 1.801165 4.081448 -27.085881 0.002757 0.163824 0.450077 0.000000 0.000000 0.000000 17.997487 11.843113 -24.692592 -9.921873 -17.364021 59.224557 -0.808672 -9.333628 -22.816348 -0.020675 0.886214 -2.436073 -0.518206 -0.039722 1.604723 -0.692543 -0.079240 2.483011 -0.419334 -0.055728 1.643484 2.281585 -0.774110 -7.036084 4.155487 -1.417806 0.903594 0.865445 -0.633744 1.487215 0.000000 0.000000 0.000000 1.846732 -0.643935 -10.912879 7.638174 -12.964633 0.869157 13.908278 3.813474 -16.142354 0.000000 0.000000 0.000000 -7.125000 0.000000 0.000000 -13.028740 46.163614 0.381028 0.000000 0.000000 0.000000 0.167014 0.411859 20.670276 -16.046552 -25.583682 -3.666029 -18.659047 3.960562 4.522989 0.000000 0.000000 0.000000 7.125000 0.000000 0.000000 6.610253 34.692731 1.681976
50.080295 15.989579 -3.288786 -165.001124 -84.822176 165.867010 0.000000 0.000000 0.000000 -21.921550 15.052513 -7.878161 1.558387 7.878208 22.344940 1.747127 4.033645 -26.687609 0.000764 -0.175360 -0.481879 0.000000 0.000000 0.000000 17.661394 12.188287 -26.223629 -10.481836 -17.671109 61.085838 -0.634850 -10.650574 -22.452754 -0.003554 0.374663 -1.029540 -0.645655 -0.092958 1.606532 -0.773114 -0.150181 2.456427 -0.430304 -0.092598 1.615068 2.326188 -0.728274 -7.037581 4.125218 -1.360600 0.928259 0.850281 -0.604986 1.494041 0.000000 0.000000 0.000000 2.054587 -1.118659 -11.115035 7.635609 -12.960587 0.868601 14.031997 3.949517 -16.408168 0.000000 0.000000 0.000000 -7.125000 0.000000 0.000000 -12.997034 46.443818 0.470990 0.000000 0.000000 0.000000 0.238201 0.529367 20.482106 -15.928591 -25.423675 -3.615286 -18.641097 4.172779 4.464276 0.000000 0.000000 0.000000 7.125000 0.000000 0.000000 6.618796 34.630545 1.694250
50.056352 15.988745 -3.267252 -165.948611 -84.883974 166.884526 0.000000 0.000000 0.000000 -22.102527 15.477976 -7.808402 1.498739 7.732721 21.905225 1.711532 3.958188 -26.398829 0.003364 -0.371732 -1.021399 0.000000 0.000000 0.000000 17.394113 12.471962 -27.675103 -10.982065 -17.925805 62.722599 -0.521301 -11.746765 -22.502651 -0.000382 -0.065497 0.180053 -0.743508 -0.162763 1.649443 -0.832542 -0.243866 2.410023 -0.435856 -0.140297 1.543283 2.343918 -0.679875 -6.996278 4.102500 -1.295164 0.934560 0.842446 -0.572905 1.487744 0.000000 0.000000 0.000000 2.248193 -1.548574 -11.312758 7.658188 -12.997191 0.873665 14.097708 4.017236 -16.495016 0.000000 0.000000 0.000000 -7.125000 0.000000 0.000000 -12.963795 46.538717 0.500539 0.000000 0.000000 0.000000 0.306944 0.702075 20.259530 -15.818653 -25.274149 -3.568214 -18.632410 4.371054 4.406904 0.000000 0.000000 0.000000 7.125000 0.000000 0.000000 6.619917 34.570049 1.704337
50.029896 15.989364 -3.246433 -166.317551 -84.989579 167.300678 0.000000 0.000000 0.000000 -22.247263 15.677685 -7.612423 1.440513 7.587673 21.468616 1.679445 4.036771 -26.209715 0.007110 -0.542808 -1.491471 0.000000 0.000000 0.000000 17.208767 12.684545 -29.006141 -11.389314 -18.119785 64.038945 -0.466814 -12.603235 -22.914495 -0.004692 -0.427671 1.175122 -0.794598 -0.248389 1.721713 -0.874171 -0.359167 2.375638 -0.448966 -0.198176 1.467303 2.327326 -0.617493 -6.948351 4.108296 -1.206792 0.877026 0.849968 -0.530878 1.460033 0.000000 0.000000 0.000000 2.434399 -1.961454 -11.641594 7.732163 -13.117746 0.890376 14.178820 3.966334 -16.528606 0.000000 0.000000 0.000000 -7.125000 0.000000 0.000000 -12.899903 46.582774 0.512227 0.000000 0.000000 0.000000 0.374785 0.894851 20.031905 -15.724363 -25.145455 -3.528046 -18.648862 4.527400 4.364662 0.000000 0.000000 0.000000 7.125000 0.000000 0.000000 6.601972 34.526489 1.706682
